<svg xmlns="http://www.w3.org/2000/svg" viewBox="0 0 128 128">
  <rect width="128" height="128" rx="30" fill="#24364f"/>
  <circle cx="98" cy="30" r="13" fill="#eaf2ff" opacity="0.95"/>
  <path d="M42 82c-17 0-29-12-29-29s12-29 29-29c10 0 18 4 24 11l-11 10c-3-4-8-6-13-6-8 0-14 6-14 14s6 14 14 14c6 0 10-2 14-7l11 10c-6 8-14 12-25 12Z" fill="#ffffff"/>
  <path d="M88 83c-12 0-22-4-30-12l10-11c6 6 13 9 21 9 5 0 8-2 8-5 0-4-4-5-13-7-12-3-22-7-22-21 0-12 10-21 25-21 11 0 20 3 27 9l-9 12c-6-5-12-7-18-7-5 0-7 2-7 5 0 4 4 5 13 7 14 3 22 8 22 21 0 13-11 21-27 21Z" fill="#dbeafe"/>
</svg>
