<svg xmlns="http://www.w3.org/2000/svg" width="900" height="520" viewBox="0 0 900 520" role="img" aria-labelledby="title desc">
  <title id="title">경사하강법 개념 이해 이미지</title>
  <desc id="desc">경사하강법은 손실 함수가 줄어드는 방향의 기울기를 따라 파라미터를 반복 갱신하는 최적화 알고리즘입니다.</desc>
  <defs>
    <linearGradient id="bg" x1="0" y1="0" x2="1" y2="1">
      <stop offset="0" stop-color="#ffffff"/>
      <stop offset="0.58" stop-color="#fdf2f8"/>
      <stop offset="1" stop-color="#fffaf0"/>
    </linearGradient>
    <filter id="shadow" x="-20%" y="-20%" width="140%" height="140%"><feDropShadow dx="0" dy="12" stdDeviation="14" flood-color="#1d1914" flood-opacity="0.11"/></filter>
    <style>
      text { font-family: -apple-system, BlinkMacSystemFont, 'Segoe UI', 'Noto Sans KR', 'Apple SD Gothic Neo', sans-serif; fill: #1f2937; }
      .label { font-size: 22px; font-weight: 850; fill: #db2777; letter-spacing: -0.03em; }
      .term { font-size: 42px; font-weight: 900; letter-spacing: -0.06em; }
      .english { font-size: 18px; font-weight: 740; fill: #64748b; }
      .definition { font-size: 22px; font-weight: 650; letter-spacing: -0.04em; }
      .node { font-size: 20px; font-weight: 860; fill: #db2777; letter-spacing: -0.04em; }
      .keyword { font-size: 14px; font-weight: 800; fill: #db2777; letter-spacing: -0.04em; }
    </style>
  </defs>
  <rect width="900" height="520" rx="36" fill="url(#bg)"/>
  <circle cx="168" cy="168" r="126" fill="#db2777" opacity="0.065"/>
  <circle cx="742" cy="414" r="174" fill="#db2777" opacity="0.05"/>
  <rect x="48" y="42" width="804" height="436" rx="32" fill="rgba(255,255,255,0.72)" stroke="#db2777" stroke-width="2" opacity="0.72"/>
  <g transform="translate(76 66) scale(0.92)"><path d="M72 94c0-34 24-62 50-62s50 28 50 62c0 24-11 40-27 53v28H99v-28C83 134 72 118 72 94z" fill="none" stroke="#db2777" stroke-width="8" stroke-linecap="round" stroke-linejoin="round" opacity="0.92"/><path d="M98 206h48M105 229h34M98 100h48M122 72v58" fill="none" stroke="#db2777" stroke-width="8" stroke-linecap="round" stroke-linejoin="round" opacity="0.92"/></g>
  <rect x="72" y="326" width="220" height="42" rx="21" fill="#fdf2f8" stroke="#db2777" opacity="0.95"/>
  <text x="182" y="354" text-anchor="middle" class="label">인공지능·데이터</text>
  <text x="452" y="92" class="label">AI · 핵심 구조</text>
  <text x="452" y="148" class="term">경사하강법</text>
  <text x="454" y="181" class="english">Gradient Descent</text>
  <rect x="424" y="204" width="390" height="6" rx="3" fill="#db2777" opacity="0.22"/>
  <rect x="424" y="222" width="188" height="34" rx="17" fill="#fff" stroke="#db2777" stroke-width="2" opacity="0.96"/><text x="518" y="245" text-anchor="middle" class="node">F1 점수</text><rect x="628" y="222" width="188" height="34" rx="17" fill="#fff" stroke="#db2777" stroke-width="2" opacity="0.96"/><text x="722" y="245" text-anchor="middle" class="node">ROC-AUC</text><rect x="424" y="266" width="188" height="34" rx="17" fill="#fff" stroke="#db2777" stroke-width="2" opacity="0.96"/><text x="518" y="289" text-anchor="middle" class="node">학습률</text><rect x="628" y="266" width="188" height="34" rx="17" fill="#fff" stroke="#db2777" stroke-width="2" opacity="0.96"/><text x="722" y="289" text-anchor="middle" class="node">손실 함수</text>
  <rect x="424" y="288" width="402" height="132" rx="22" fill="#fff" stroke="#db2777" stroke-width="2" opacity="0.86"/>
  <text x="446" y="327" class="definition">경사하강법은 손실 함수가 줄어드는 방향의 기울기를</text><text x="446" y="357" class="definition">따라 파라미터를 반복 갱신하는 최적화</text><text x="446" y="387" class="definition">알고리즘입니다.</text>
  <text x="104" y="410" class="label">기억 단서</text>
  <rect x="104" y="430" width="104" height="34" rx="17" fill="#fdf2f8" stroke="#db2777" opacity="0.95"/><text x="156" y="452" text-anchor="middle" class="keyword">경사하강법</text><rect x="224" y="430" width="104" height="34" rx="17" fill="#fdf2f8" stroke="#db2777" opacity="0.95"/><text x="276" y="452" text-anchor="middle" class="keyword">Descent</text><rect x="344" y="430" width="104" height="34" rx="17" fill="#fdf2f8" stroke="#db2777" opacity="0.95"/><text x="396" y="452" text-anchor="middle" class="keyword">Gradient</text><rect x="464" y="430" width="104" height="34" rx="17" fill="#fdf2f8" stroke="#db2777" opacity="0.95"/><text x="516" y="452" text-anchor="middle" class="keyword">F1</text>
</svg>
