<svg xmlns="http://www.w3.org/2000/svg" width="900" height="520" viewBox="0 0 900 520" role="img" aria-labelledby="title desc">
  <title id="title">소프트웨어공학 개념 이해 이미지</title>
  <desc id="desc">소프트웨어공학은 요구분석부터 설계·구현·테스트·운영까지 체계적 방법으로 품질, 비용, 일정, 생산성을 관리하는 학문·실무 영역입니다.</desc>
  <defs>
    <linearGradient id="bg" x1="0" y1="0" x2="1" y2="1">
      <stop offset="0" stop-color="#ffffff"/>
      <stop offset="0.58" stop-color="#fefce8"/>
      <stop offset="1" stop-color="#fffaf0"/>
    </linearGradient>
    <filter id="shadow" x="-20%" y="-20%" width="140%" height="140%"><feDropShadow dx="0" dy="12" stdDeviation="14" flood-color="#1d1914" flood-opacity="0.11"/></filter>
    <style>
      text { font-family: -apple-system, BlinkMacSystemFont, 'Segoe UI', 'Noto Sans KR', 'Apple SD Gothic Neo', sans-serif; fill: #1f2937; }
      .label { font-size: 22px; font-weight: 850; fill: #ca8a04; letter-spacing: -0.03em; }
      .term { font-size: 42px; font-weight: 900; letter-spacing: -0.06em; }
      .english { font-size: 18px; font-weight: 740; fill: #64748b; }
      .definition { font-size: 22px; font-weight: 650; letter-spacing: -0.04em; }
      .node { font-size: 20px; font-weight: 860; fill: #ca8a04; letter-spacing: -0.04em; }
      .keyword { font-size: 14px; font-weight: 800; fill: #ca8a04; letter-spacing: -0.04em; }
    </style>
  </defs>
  <rect width="900" height="520" rx="36" fill="url(#bg)"/>
  <circle cx="168" cy="168" r="126" fill="#ca8a04" opacity="0.065"/>
  <circle cx="742" cy="414" r="174" fill="#ca8a04" opacity="0.05"/>
  <rect x="48" y="42" width="804" height="436" rx="32" fill="rgba(255,255,255,0.72)" stroke="#ca8a04" stroke-width="2" opacity="0.72"/>
  <g transform="translate(76 66) scale(0.92)"><path d="M38 166l82-101 82 101" fill="none" stroke="#ca8a04" stroke-width="8" stroke-linecap="round" stroke-linejoin="round" opacity="0.92"/><path d="M70 166v-52h100v52M94 166v-26h52v26" fill="none" stroke="#ca8a04" stroke-width="8" stroke-linecap="round" stroke-linejoin="round" opacity="0.92"/></g>
  <rect x="72" y="326" width="220" height="42" rx="21" fill="#fefce8" stroke="#ca8a04" opacity="0.95"/>
  <text x="182" y="354" text-anchor="middle" class="label">소프트웨어공학</text>
  <text x="452" y="92" class="label">SW · 핵심 구조</text>
  <text x="452" y="148" class="term">소프트웨어공학</text>
  <text x="454" y="181" class="english">Software Engineering</text>
  <rect x="424" y="204" width="390" height="6" rx="3" fill="#ca8a04" opacity="0.22"/>
  <rect x="424" y="222" width="188" height="34" rx="17" fill="#fff" stroke="#ca8a04" stroke-width="2" opacity="0.96"/><text x="518" y="245" text-anchor="middle" class="node">소프트웨어 생명주기</text><rect x="628" y="222" width="188" height="34" rx="17" fill="#fff" stroke="#ca8a04" stroke-width="2" opacity="0.96"/><text x="722" y="245" text-anchor="middle" class="node">폭포수 모델</text><rect x="424" y="266" width="188" height="34" rx="17" fill="#fff" stroke="#ca8a04" stroke-width="2" opacity="0.96"/><text x="518" y="289" text-anchor="middle" class="node">테스트</text><rect x="628" y="266" width="188" height="34" rx="17" fill="#fff" stroke="#ca8a04" stroke-width="2" opacity="0.96"/><text x="722" y="289" text-anchor="middle" class="node">형상 관리</text>
  <rect x="424" y="288" width="402" height="132" rx="22" fill="#fff" stroke="#ca8a04" stroke-width="2" opacity="0.86"/>
  <text x="446" y="327" class="definition">소프트웨어공학은 요구분석부터</text><text x="446" y="357" class="definition">설계·구현·테스트·운영까지 체계적 방법으로 품질,</text><text x="446" y="387" class="definition">비용, 일정, 생산성을 관리하는 학문·실무</text><text x="446" y="417" class="definition">영역입니다.</text>
  <text x="104" y="410" class="label">기억 단서</text>
  <rect x="104" y="430" width="104" height="34" rx="17" fill="#fefce8" stroke="#ca8a04" opacity="0.95"/><text x="156" y="452" text-anchor="middle" class="keyword">소프트웨어공학</text><rect x="224" y="430" width="104" height="34" rx="17" fill="#fefce8" stroke="#ca8a04" opacity="0.95"/><text x="276" y="452" text-anchor="middle" class="keyword">소프트웨어</text><rect x="344" y="430" width="104" height="34" rx="17" fill="#fefce8" stroke="#ca8a04" opacity="0.95"/><text x="396" y="452" text-anchor="middle" class="keyword">Software</text><rect x="464" y="430" width="104" height="34" rx="17" fill="#fefce8" stroke="#ca8a04" opacity="0.95"/><text x="516" y="452" text-anchor="middle" class="keyword">…</text>
</svg>
