<svg xmlns="http://www.w3.org/2000/svg" width="900" height="520" viewBox="0 0 900 520" role="img" aria-labelledby="title desc">
  <title id="title">로드 밸런싱 개념 이해 이미지</title>
  <desc id="desc">로드 밸런싱은 여러 서버나 인스턴스에 요청을 분산해 처리량, 가용성, 장애 대응력을 높이는 트래픽 제어 기법입니다.</desc>
  <defs>
    <linearGradient id="bg" x1="0" y1="0" x2="1" y2="1">
      <stop offset="0" stop-color="#ffffff"/>
      <stop offset="0.58" stop-color="#f0f9ff"/>
      <stop offset="1" stop-color="#fffaf0"/>
    </linearGradient>
    <filter id="shadow" x="-20%" y="-20%" width="140%" height="140%"><feDropShadow dx="0" dy="12" stdDeviation="14" flood-color="#1d1914" flood-opacity="0.11"/></filter>
    <style>
      text { font-family: -apple-system, BlinkMacSystemFont, 'Segoe UI', 'Noto Sans KR', 'Apple SD Gothic Neo', sans-serif; fill: #1f2937; }
      .label { font-size: 22px; font-weight: 850; fill: #0284c7; letter-spacing: -0.03em; }
      .term { font-size: 42px; font-weight: 900; letter-spacing: -0.06em; }
      .english { font-size: 18px; font-weight: 740; fill: #64748b; }
      .definition { font-size: 22px; font-weight: 650; letter-spacing: -0.04em; }
      .node { font-size: 20px; font-weight: 860; fill: #0284c7; letter-spacing: -0.04em; }
      .keyword { font-size: 14px; font-weight: 800; fill: #0284c7; letter-spacing: -0.04em; }
    </style>
  </defs>
  <rect width="900" height="520" rx="36" fill="url(#bg)"/>
  <circle cx="168" cy="168" r="126" fill="#0284c7" opacity="0.065"/>
  <circle cx="742" cy="414" r="174" fill="#0284c7" opacity="0.05"/>
  <rect x="48" y="42" width="804" height="436" rx="32" fill="rgba(255,255,255,0.72)" stroke="#0284c7" stroke-width="2" opacity="0.72"/>
  <g transform="translate(76 66) scale(0.92)"><path d="M60 154h124c26 0 43-16 43-38 0-21-17-36-40-36-10-29-35-48-67-48-36 0-64 25-71 58-24 2-41 17-41 37 0 17 14 27 52 27z" fill="none" stroke="#0284c7" stroke-width="8" stroke-linecap="round" stroke-linejoin="round" opacity="0.92"/><path d="M78 196h84M120 154v42" fill="none" stroke="#0284c7" stroke-width="8" stroke-linecap="round" stroke-linejoin="round" opacity="0.92"/></g>
  <rect x="72" y="326" width="220" height="42" rx="21" fill="#f0f9ff" stroke="#0284c7" opacity="0.95"/>
  <text x="182" y="354" text-anchor="middle" class="label">클라우드·분산시스템</text>
  <text x="452" y="92" class="label">CLOUD · 핵심 구조</text>
  <text x="452" y="148" class="term">로드 밸런싱</text>
  <text x="454" y="181" class="english">Load Balancing</text>
  <rect x="424" y="204" width="390" height="6" rx="3" fill="#0284c7" opacity="0.22"/>
  <rect x="424" y="222" width="188" height="34" rx="17" fill="#fff" stroke="#0284c7" stroke-width="2" opacity="0.96"/><text x="518" y="245" text-anchor="middle" class="node">샤딩</text><rect x="628" y="222" width="188" height="34" rx="17" fill="#fff" stroke="#0284c7" stroke-width="2" opacity="0.96"/><text x="722" y="245" text-anchor="middle" class="node">파티셔닝</text><rect x="424" y="266" width="188" height="34" rx="17" fill="#fff" stroke="#0284c7" stroke-width="2" opacity="0.96"/><text x="518" y="289" text-anchor="middle" class="node">메시지 큐</text><rect x="628" y="266" width="188" height="34" rx="17" fill="#fff" stroke="#0284c7" stroke-width="2" opacity="0.96"/><text x="722" y="289" text-anchor="middle" class="node">Kafka</text>
  <rect x="424" y="288" width="402" height="132" rx="22" fill="#fff" stroke="#0284c7" stroke-width="2" opacity="0.86"/>
  <text x="446" y="327" class="definition">로드 밸런싱은 여러 서버나 인스턴스에 요청을 분산해</text><text x="446" y="357" class="definition">처리량, 가용성, 장애 대응력을 높이는 트래픽 제어</text><text x="446" y="387" class="definition">기법입니다.</text>
  <text x="104" y="410" class="label">기억 단서</text>
  <rect x="104" y="430" width="104" height="34" rx="17" fill="#f0f9ff" stroke="#0284c7" opacity="0.95"/><text x="156" y="452" text-anchor="middle" class="keyword">로드</text><rect x="224" y="430" width="104" height="34" rx="17" fill="#f0f9ff" stroke="#0284c7" opacity="0.95"/><text x="276" y="452" text-anchor="middle" class="keyword">밸런싱</text><rect x="344" y="430" width="104" height="34" rx="17" fill="#f0f9ff" stroke="#0284c7" opacity="0.95"/><text x="396" y="452" text-anchor="middle" class="keyword">Load</text><rect x="464" y="430" width="104" height="34" rx="17" fill="#f0f9ff" stroke="#0284c7" opacity="0.95"/><text x="516" y="452" text-anchor="middle" class="keyword">Balancing</text>
</svg>
