<svg xmlns="http://www.w3.org/2000/svg" width="900" height="520" viewBox="0 0 900 520" role="img" aria-labelledby="title desc">
  <title id="title">제로 트러스트 개념 이해 이미지</title>
  <desc id="desc">제로 트러스트는 사용자·단말·서비스의 위치와 관계없이 요청마다 신원, 상태, 권한을 검증해 접근을 제한하는 보안 모델입니다.</desc>
  <defs>
    <linearGradient id="bg" x1="0" y1="0" x2="1" y2="1">
      <stop offset="0" stop-color="#ffffff"/>
      <stop offset="0.58" stop-color="#fef2f2"/>
      <stop offset="1" stop-color="#fffaf0"/>
    </linearGradient>
    <filter id="shadow" x="-20%" y="-20%" width="140%" height="140%"><feDropShadow dx="0" dy="12" stdDeviation="14" flood-color="#1d1914" flood-opacity="0.11"/></filter>
    <style>
      text { font-family: -apple-system, BlinkMacSystemFont, 'Segoe UI', 'Noto Sans KR', 'Apple SD Gothic Neo', sans-serif; fill: #1f2937; }
      .label { font-size: 22px; font-weight: 850; fill: #dc2626; letter-spacing: -0.03em; }
      .term { font-size: 42px; font-weight: 900; letter-spacing: -0.06em; }
      .english { font-size: 18px; font-weight: 740; fill: #64748b; }
      .definition { font-size: 22px; font-weight: 650; letter-spacing: -0.04em; }
      .node { font-size: 20px; font-weight: 860; fill: #dc2626; letter-spacing: -0.04em; }
      .keyword { font-size: 14px; font-weight: 800; fill: #dc2626; letter-spacing: -0.04em; }
    </style>
  </defs>
  <rect width="900" height="520" rx="36" fill="url(#bg)"/>
  <circle cx="168" cy="168" r="126" fill="#dc2626" opacity="0.065"/>
  <circle cx="742" cy="414" r="174" fill="#dc2626" opacity="0.05"/>
  <rect x="48" y="42" width="804" height="436" rx="32" fill="rgba(255,255,255,0.72)" stroke="#dc2626" stroke-width="2" opacity="0.72"/>
  <g transform="translate(76 66) scale(0.92)"><path d="M120 34l74 28v50c0 47-29 78-74 99-45-21-74-52-74-99V62z" fill="none" stroke="#dc2626" stroke-width="8" stroke-linecap="round" stroke-linejoin="round" opacity="0.92"/><path d="M86 116l22 22 48-55" fill="none" stroke="#dc2626" stroke-width="8" stroke-linecap="round" stroke-linejoin="round" opacity="0.92"/></g>
  <rect x="72" y="326" width="220" height="42" rx="21" fill="#fef2f2" stroke="#dc2626" opacity="0.95"/>
  <text x="182" y="354" text-anchor="middle" class="label">보안</text>
  <text x="452" y="92" class="label">SEC · 핵심 구조</text>
  <text x="452" y="148" class="term">제로 트러스트</text>
  <text x="454" y="181" class="english">Zero Trust</text>
  <rect x="424" y="204" width="390" height="6" rx="3" fill="#dc2626" opacity="0.22"/>
  <rect x="424" y="222" width="188" height="34" rx="17" fill="#fff" stroke="#dc2626" stroke-width="2" opacity="0.96"/><text x="518" y="245" text-anchor="middle" class="node">DNS 스푸핑</text><rect x="628" y="222" width="188" height="34" rx="17" fill="#fff" stroke="#dc2626" stroke-width="2" opacity="0.96"/><text x="722" y="245" text-anchor="middle" class="node">중간자 공격</text><rect x="424" y="266" width="188" height="34" rx="17" fill="#fff" stroke="#dc2626" stroke-width="2" opacity="0.96"/><text x="518" y="289" text-anchor="middle" class="node">VPN</text><rect x="628" y="266" width="188" height="34" rx="17" fill="#fff" stroke="#dc2626" stroke-width="2" opacity="0.96"/><text x="722" y="289" text-anchor="middle" class="node">SSH</text>
  <rect x="424" y="288" width="402" height="132" rx="22" fill="#fff" stroke="#dc2626" stroke-width="2" opacity="0.86"/>
  <text x="446" y="327" class="definition">제로 트러스트는 사용자·단말·서비스의 위치와</text><text x="446" y="357" class="definition">관계없이 요청마다 신원, 상태, 권한을 검증해</text><text x="446" y="387" class="definition">접근을 제한하는 보안 모델입니다.</text>
  <text x="104" y="410" class="label">기억 단서</text>
  <rect x="104" y="430" width="104" height="34" rx="17" fill="#fef2f2" stroke="#dc2626" opacity="0.95"/><text x="156" y="452" text-anchor="middle" class="keyword">제로</text><rect x="224" y="430" width="104" height="34" rx="17" fill="#fef2f2" stroke="#dc2626" opacity="0.95"/><text x="276" y="452" text-anchor="middle" class="keyword">Zero</text><rect x="344" y="430" width="104" height="34" rx="17" fill="#fef2f2" stroke="#dc2626" opacity="0.95"/><text x="396" y="452" text-anchor="middle" class="keyword">트러스트</text><rect x="464" y="430" width="104" height="34" rx="17" fill="#fef2f2" stroke="#dc2626" opacity="0.95"/><text x="516" y="452" text-anchor="middle" class="keyword">Trust</text>
</svg>
