<svg xmlns="http://www.w3.org/2000/svg" width="1200" height="720" viewBox="0 0 1200 720" role="img" aria-labelledby="title desc">
  <title id="title">13-01-02. JOIN-서브쿼리 SVG 인포그래픽</title>
  <desc id="desc">JOIN-서브쿼리</desc>
  <defs>
    <linearGradient id="grad-13-01-02-join-infographic.svg" x1="0" y1="0" x2="1" y2="1">
      <stop offset="0%" stop-color="#cffafe" />
      <stop offset="100%" stop-color="#f0fdf4" />
    </linearGradient>
    <linearGradient id="line-13-01-02-join-infographic.svg" x1="0" y1="0" x2="1" y2="0">
      <stop offset="0%" stop-color="#0891b2" />
      <stop offset="100%" stop-color="#22c55e" />
    </linearGradient>
    <style>
      .title { font: 700 34px 'Pretendard','Noto Sans KR',sans-serif; fill: #0f172a; }
      .subtitle { font: 500 17px 'Pretendard','Noto Sans KR',sans-serif; fill: #334155; }
      .label { font: 700 17px 'Pretendard','Noto Sans KR',sans-serif; fill: #0f172a; }
      .body { font: 500 16px 'Pretendard','Noto Sans KR',sans-serif; fill: #334155; }
      .small { font: 600 13px 'Pretendard','Noto Sans KR',sans-serif; fill: #475569; }
      .cap { font: 700 14px 'Pretendard','Noto Sans KR',sans-serif; fill: #0f172a; }
    </style>
  </defs>
  <rect width="1200" height="720" fill="#f8fafc"/>
  <rect x="32" y="30" width="1136" height="660" rx="30" fill="url(#grad-13-01-02-join-infographic.svg)" opacity="0.9"/>
  <rect x="48" y="46" width="1104" height="628" rx="28" fill="white"/>
  <rect x="48" y="46" width="1104" height="628" rx="28" fill="url(#grad-13-01-02-join-infographic.svg)" opacity="0.14"/>
  <text class="small" x="84" y="86">금융공기업 IT · 페이지 맞춤 SVG</text>
  <text class="title" x="84" y="118" text-anchor="start"><tspan x="84" dy="0">13-01-02. JOIN-서브쿼리</tspan></text>
  <text class="subtitle" x="84" y="180" text-anchor="start"><tspan x="84" dy="0">INNER JOIN은 매칭되는 행만 반환한다.</tspan></text>
  <defs><marker id="arrow" viewBox="0 0 10 10" refX="9" refY="5" markerWidth="8" markerHeight="8" orient="auto-start-reverse"><path d="M 0 0 L 10 5 L 0 10 z" fill="#22c55e"/></marker></defs><rect x="92" y="248" width="250" height="250" rx="22" fill="#cffafe" stroke="#0891b2" stroke-width="2"/><text class="label" x="217" y="282" text-anchor="middle"><tspan x="217" dy="0">기준 테이블</tspan></text><text class="body" x="110" y="318" text-anchor="start"><tspan x="110" dy="0">JOIN</tspan><tspan x="110" dy="18">조건 필터</tspan></text><rect x="420" y="222" width="360" height="302" rx="22" fill="#ffffff" stroke="#22c55e" stroke-width="2"/><text class="label" x="600" y="256" text-anchor="middle"><tspan x="600" dy="0">JOIN-서브쿼리</tspan></text><text class="body" x="438" y="292" text-anchor="start"><tspan x="438" dy="0">조건 필터</tspan><tspan x="438" dy="18">서브쿼리</tspan><tspan x="438" dy="18">집계</tspan></text><rect x="858" y="248" width="250" height="250" rx="22" fill="#f0fdf4" stroke="#0891b2" stroke-width="2"/><text class="label" x="983" y="282" text-anchor="middle"><tspan x="983" dy="0">결과</tspan></text><text class="body" x="876" y="318" text-anchor="start"><tspan x="876" dy="0">기준 테이블</tspan><tspan x="876" dy="18">JOIN</tspan></text><rect x="330" y="552" width="540" height="82" rx="22" fill="#f8fafc" stroke="#0891b2" stroke-width="2"/><text class="label" x="600" y="586" text-anchor="middle"><tspan x="600" dy="0">핵심 규칙</tspan></text><text class="body" x="348" y="622" text-anchor="start"><tspan x="348" dy="0">기준 테이블</tspan><tspan x="348" dy="18">JOIN</tspan><tspan x="348" dy="18">조건 필터</tspan></text><line x1="342" y1="372" x2="420" y2="372" stroke="#22c55e" stroke-width="4" stroke-linecap="round" marker-end="url(#arrow)"/><line x1="342" y1="372" x2="420" y2="372" stroke="#22c55e" stroke-width="2" stroke-linecap="round" stroke-dasharray="10 8" opacity="0.5"><animate attributeName="stroke-dashoffset" from="0" to="-72" dur="4s" repeatCount="indefinite"/></line><line x1="780" y1="372" x2="858" y2="372" stroke="#22c55e" stroke-width="4" stroke-linecap="round" marker-end="url(#arrow)"/><line x1="780" y1="372" x2="858" y2="372" stroke="#22c55e" stroke-width="2" stroke-linecap="round" stroke-dasharray="10 8" opacity="0.5"><animate attributeName="stroke-dashoffset" from="0" to="-72" dur="4s" repeatCount="indefinite"/></line><line x1="600" y1="524" x2="600" y2="552" stroke="#22c55e" stroke-width="4" stroke-linecap="round" marker-end="url(#arrow)"/><line x1="600" y1="524" x2="600" y2="552" stroke="#22c55e" stroke-width="2" stroke-linecap="round" stroke-dasharray="10 8" opacity="0.5"><animate attributeName="stroke-dashoffset" from="0" to="-72" dur="4s" repeatCount="indefinite"/></line>
  <text class="small" x="84" y="654">13-01-02-join-infographic.svg</text>
</svg>