<svg xmlns="http://www.w3.org/2000/svg" width="1200" height="720" viewBox="0 0 1200 720" role="img" aria-labelledby="title desc">
  <title id="title">16-1. AI·ML·DL 기본 SVG 인포그래픽</title>
  <desc id="desc">AI·ML·DL 기본</desc>
  <defs>
    <linearGradient id="grad-16-1-ai-ml-dl-infographic.svg" x1="0" y1="0" x2="1" y2="1">
      <stop offset="0%" stop-color="#f3e8ff" />
      <stop offset="100%" stop-color="#eff6ff" />
    </linearGradient>
    <linearGradient id="line-16-1-ai-ml-dl-infographic.svg" x1="0" y1="0" x2="1" y2="0">
      <stop offset="0%" stop-color="#9333ea" />
      <stop offset="100%" stop-color="#3b82f6" />
    </linearGradient>
    <style>
      .title { font: 700 34px 'Pretendard','Noto Sans KR',sans-serif; fill: #0f172a; }
      .subtitle { font: 500 17px 'Pretendard','Noto Sans KR',sans-serif; fill: #334155; }
      .label { font: 700 17px 'Pretendard','Noto Sans KR',sans-serif; fill: #0f172a; }
      .body { font: 500 16px 'Pretendard','Noto Sans KR',sans-serif; fill: #334155; }
      .small { font: 600 13px 'Pretendard','Noto Sans KR',sans-serif; fill: #475569; }
      .cap { font: 700 14px 'Pretendard','Noto Sans KR',sans-serif; fill: #0f172a; }
    </style>
  </defs>
  <rect width="1200" height="720" fill="#f8fafc"/>
  <rect x="32" y="30" width="1136" height="660" rx="30" fill="url(#grad-16-1-ai-ml-dl-infographic.svg)" opacity="0.9"/>
  <rect x="48" y="46" width="1104" height="628" rx="28" fill="white"/>
  <rect x="48" y="46" width="1104" height="628" rx="28" fill="url(#grad-16-1-ai-ml-dl-infographic.svg)" opacity="0.14"/>
  <text class="small" x="84" y="86">금융공기업 IT · 페이지 맞춤 SVG</text>
  <text class="title" x="84" y="118" text-anchor="start"><tspan x="84" dy="0">16-1. AI ML DL 기본</tspan></text>
  <text class="subtitle" x="84" y="180" text-anchor="start"><tspan x="84" dy="0">AI는 지능적 행동을 수행하는 시스템 전체를 뜻하며 규칙 기반 추론, 탐색,</tspan><tspan x="84" dy="24">기계학습까지 모두 포함한다.</tspan></text>
  <defs><marker id="arrow" viewBox="0 0 10 10" refX="9" refY="5" markerWidth="8" markerHeight="8" orient="auto-start-reverse"><path d="M 0 0 L 10 5 L 0 10 z" fill="#3b82f6"/></marker></defs><rect x="450" y="130" width="300" height="80" rx="22" fill="#ffffff" stroke="#3b82f6" stroke-width="2"/><text class="label" x="600" y="164" text-anchor="middle"><tspan x="600" dy="0">AI</tspan></text><text class="body" x="468" y="200" text-anchor="start"></text><rect x="130" y="320" width="220" height="110" rx="22" fill="#f3e8ff" stroke="#9333ea" stroke-width="2"/><text class="label" x="240" y="354" text-anchor="middle"><tspan x="240" dy="0">ML</tspan></text><text class="body" x="148" y="390" text-anchor="start"></text><line x1="600" y1="210" x2="240" y2="320" stroke="#3b82f6" stroke-width="4" stroke-linecap="round" marker-end="url(#arrow)"/><rect x="370" y="320" width="220" height="110" rx="22" fill="#eff6ff" stroke="#9333ea" stroke-width="2"/><text class="label" x="480" y="354" text-anchor="middle"><tspan x="480" dy="0">DL</tspan></text><text class="body" x="388" y="390" text-anchor="start"></text><line x1="600" y1="210" x2="480" y2="320" stroke="#3b82f6" stroke-width="4" stroke-linecap="round" marker-end="url(#arrow)"/><rect x="610" y="320" width="220" height="110" rx="22" fill="#f3e8ff" stroke="#9333ea" stroke-width="2"/><text class="label" x="720" y="354" text-anchor="middle"><tspan x="720" dy="0">지도학습</tspan></text><text class="body" x="628" y="390" text-anchor="start"></text><line x1="600" y1="210" x2="720" y2="320" stroke="#3b82f6" stroke-width="4" stroke-linecap="round" marker-end="url(#arrow)"/><rect x="850" y="320" width="220" height="110" rx="22" fill="#eff6ff" stroke="#9333ea" stroke-width="2"/><text class="label" x="960" y="354" text-anchor="middle"><tspan x="960" dy="0">비지도학습</tspan></text><text class="body" x="868" y="390" text-anchor="start"></text><line x1="600" y1="210" x2="960" y2="320" stroke="#3b82f6" stroke-width="4" stroke-linecap="round" marker-end="url(#arrow)"/><rect x="250" y="540" width="700" height="74" rx="22" fill="#ffffff" stroke="#9333ea" stroke-width="2"/><text class="label" x="600" y="574" text-anchor="middle"><tspan x="600" dy="0">운영 포인트</tspan></text><text class="body" x="268" y="610" text-anchor="start"><tspan x="268" dy="0">ML</tspan><tspan x="268" dy="18">DL</tspan><tspan x="268" dy="18">지도학습</tspan></text>
  <text class="small" x="84" y="654">16-1-ai-ml-dl-infographic.svg</text>
</svg>